<svg width="88.5" height="122.88" xmlns="http://www.w3.org/2000/svg" xml:space="preserve" version="1.1">

 <g>
  <title>Layer 1</title>
  <g id="svg_1">
   <path id="svg_2" d="m36.19,122.88l0,-26.54l-31.06,0c-5.2,0.48 -6.26,-3.63 -4.03,-7.04l19.84,-23.26l-0.57,-0.57l-10.62,0c-3.85,0.57 -5.27,-3.6 -2.94,-6.53l21.37,-25.1l-6.24,0c-3.91,0.1 -4.87,-3.49 -2.37,-6.88l19.47,-23.12c1.33,-1.58 2.75,-3.89 5.06,-3.84c1.99,0.04 3.19,1.93 4.37,3.31l20.7,24.14c2.25,3.22 0.33,6.61 -3.59,6.61l-5.58,0l21.22,24.87c2.55,2.52 1.25,6.55 -1.68,7.11l-12.33,0l18.5,21.7c2.17,2.55 5.27,7.91 -0.54,8.6l-33.34,0l0,26.54l-15.64,0l0,0z"/>
  </g>
 </g>
</svg>